<svg width="191" height="36" viewBox="0 0 191 36" xmlns="http://www.w3.org/2000/svg">
    <defs>
        <linearGradient x1="-5.025%" y1="50.175%" x2="106.435%" y2="49.986%" id="f04cfwmb9a">
            <stop stop-color="#ECDE59" offset="0%"/>
            <stop stop-color="#EDD14D" offset="29.57%"/>
            <stop stop-color="#EFAE2F" offset="84.36%"/>
            <stop stop-color="#F0A325" offset="100%"/>
        </linearGradient>
    </defs>
    <g fill-rule="nonzero" fill="none">
        <path d="M13.727 10.043c-4.019 0-7.304 1.252-9.885 3.728C1.291 16.247 0 19.335 0 23.008c0 3.756 1.29 6.844 3.901 9.292 2.61 2.448 6.013 3.672 10.236 3.672 5.016 0 8.829-1.78 11.38-5.37l-4.634-2.559c-1.496 2.031-3.725 3.06-6.716 3.06-2.142 0-3.96-.5-5.456-1.502-1.496-1.001-2.434-2.448-2.845-4.312h20.678c.147-.918.205-1.67.205-2.226 0-3.616-1.231-6.677-3.666-9.208-2.434-2.532-5.543-3.812-9.356-3.812zM5.807 20.95c.382-1.864 1.262-3.338 2.64-4.423 1.379-1.086 3.11-1.614 5.192-1.614 1.847 0 3.431.5 4.81 1.53 1.378 1.03 2.229 2.532 2.61 4.535H5.807v-.028zM30.093 0h5.602v36h-5.602V0zM53.06 10.043c-4.018 0-7.303 1.252-9.885 3.728-2.551 2.476-3.842 5.564-3.842 9.237 0 3.756 1.29 6.844 3.901 9.292 2.61 2.448 6.013 3.672 10.236 3.672 5.016 0 8.829-1.78 11.38-5.37l-4.634-2.559c-1.495 2.031-3.725 3.06-6.716 3.06-2.141 0-3.96-.5-5.456-1.502-1.496-1.001-2.434-2.448-2.845-4.312h20.708c.146-.918.205-1.67.205-2.226 0-3.616-1.232-6.677-3.666-9.208-2.464-2.532-5.573-3.812-9.386-3.812zm-7.89 10.906c.381-1.864 1.261-3.338 2.64-4.423 1.378-1.086 3.109-1.614 5.191-1.614 1.848 0 3.432.5 4.81 1.53 1.379 1.03 2.23 2.532 2.61 4.535H45.17v-.028zm44.113 6.01 4.84 2.614c-1.115 1.976-2.699 3.534-4.781 4.674-2.083 1.14-4.37 1.725-6.922 1.725-3.93 0-7.186-1.252-9.797-3.756-2.61-2.503-3.93-5.564-3.93-9.208 0-3.673 1.32-6.76 3.93-9.237 2.61-2.476 5.896-3.728 9.797-3.728 2.522 0 4.84.585 6.922 1.725 2.082 1.14 3.637 2.699 4.663 4.646l-4.84 2.671c-.586-1.196-1.495-2.114-2.668-2.782-1.203-.668-2.582-1.002-4.136-1.002-2.288 0-4.194.752-5.749 2.226-1.554 1.475-2.317 3.31-2.317 5.509 0 2.197.763 4.034 2.317 5.508 1.555 1.475 3.461 2.226 5.749 2.226 1.525 0 2.904-.334 4.136-1.03 1.231-.695 2.17-1.613 2.786-2.782zm13.345-6.51H96.82c.47-2.56 1.701-4.786 3.696-6.678 2.61-2.476 5.895-3.728 9.796-3.728 2.522 0 4.84.585 6.922 1.725 2.082 1.14 3.637 2.699 4.663 4.646l-4.84 2.671c-.586-1.196-1.495-2.114-2.668-2.782-1.203-.668-2.581-1.002-4.136-1.002-2.288 0-4.194.752-5.749 2.226-.85.835-1.495 1.808-1.877 2.921zm-5.778 5.146h5.778a7.202 7.202 0 0 0 1.907 2.949c1.554 1.475 3.46 2.226 5.749 2.226 1.525 0 2.903-.334 4.135-1.03 1.232-.695 2.17-1.613 2.787-2.754l4.84 2.615c-1.115 1.976-2.7 3.533-4.782 4.674-2.082 1.14-4.37 1.725-6.922 1.725-3.93 0-7.186-1.252-9.796-3.756-1.995-1.892-3.227-4.09-3.696-6.649zm32.498 0h5.602v2.476c0 1.03.235 1.753.734 2.198.498.445 1.202.695 2.17.751.939.056 2.141.056 3.55-.028v4.785c-4.312.501-7.392.14-9.24-1.057-1.877-1.196-2.816-3.422-2.816-6.621v-2.504zm5.632-5.147h-5.602v-4.2h-4.81v-5.12h4.78V5.787L134.95 4.2v6.927h6.453v5.12h-6.453v4.2h.03zm12.084 5.147h5.602v10.377h-5.602V25.595zm6.16-5.147h-6.16v-9.097h5.602v4.145c1.408-3.06 4.077-4.59 8.007-4.59v5.759c-2.14-.14-4.018.361-5.602 1.446-.821.585-1.437 1.363-1.848 2.337zM191 23.036c0 3.644-1.32 6.732-3.989 9.208-2.64 2.504-5.895 3.756-9.738 3.756-3.813 0-7.039-1.252-9.708-3.756-2.024-1.892-3.256-4.09-3.754-6.649h5.778c.381 1.113 1.026 2.114 1.936 3.005 1.554 1.474 3.49 2.225 5.778 2.225 2.287 0 4.223-.75 5.778-2.225 1.554-1.475 2.346-3.339 2.346-5.564 0-2.226-.792-4.09-2.346-5.565-1.555-1.474-3.49-2.225-5.778-2.225-2.288 0-4.224.75-5.778 2.225a7.274 7.274 0 0 0-1.936 3.005h-5.778c.498-2.532 1.76-4.757 3.754-6.65 2.669-2.503 5.895-3.755 9.708-3.755 3.843 0 7.098 1.252 9.738 3.756 2.67 2.476 3.989 5.536 3.989 9.209z" fill="#FFF"/>
        <path d="M182.853 22.443c-.354-1.625-1.502-2.98-3.033-3.766-.353-.162-.707-.325-1.09-.433a6.51 6.51 0 0 0-1.796-.244c-2.974 0-5.447 1.978-5.948 4.606H84.801a3.118 3.118 0 0 0-.442-.732 2.878 2.878 0 0 0-1.03-.785 3.176 3.176 0 0 0-1.355-.298c-.412 0-.795.08-1.178.216-.177.082-.353.163-.5.244l-.442.325c-.147.136-.265.271-.353.407-.207.298-.383.623-.442.975-.03.19-.059.352-.059.542 0 .488.118.921.353 1.3.148.244.324.461.5.624.06.054.148.108.207.19.088.08.206.135.324.216.471.271 1.001.406 1.59.406.471 0 .942-.108 1.354-.298.265-.135.501-.298.737-.487.323-.298.559-.65.736-1.03h86.185a4.884 4.884 0 0 0 .707 1.815 5.895 5.895 0 0 0 1.325 1.464c.265.216.53.379.854.541.294.163.618.298.942.407a6.784 6.784 0 0 0 2.12.352 6.51 6.51 0 0 0 1.796-.244 5.32 5.32 0 0 0 1.09-.433 5.64 5.64 0 0 0 .972-.596c.441-.353.854-.732 1.177-1.193.648-.894 1.031-1.95 1.031-3.115-.03-.244-.059-.596-.147-.976zm-2.915 1.138c0 .298-.06.57-.148.813l-.088.244c-.442.975-1.531 1.68-2.768 1.68-1.236 0-2.296-.705-2.768-1.68l-.088-.244a2.632 2.632 0 0 1-.147-.813c0-.948.53-1.788 1.325-2.276a3.153 3.153 0 0 1 1.678-.46c.619 0 1.208.162 1.679.46.795.488 1.325 1.328 1.325 2.276z" fill="url(#f04cfwmb9a)"/>
    </g>
</svg>
